<svg xmlns="http://www.w3.org/2000/svg" width="500" height="500" viewBox="0 0 500 500">
<g>
<path d="M 228.13 332.73 C226.28,329.31 215.31,308.95 203.76,287.50 C192.21,266.05 181.92,247.32 180.89,245.87 C177.68,241.33 170.61,238.69 161.50,238.62 C156.70,238.59 152.57,239.08 151.16,239.86 C147.79,241.74 147.49,240.69 149.93,235.64 C152.47,230.40 155.12,228.43 161.57,226.98 C164.59,226.31 167.83,224.56 170.63,222.10 C175.59,217.73 179.36,216.56 193.50,215.01 C207.75,213.45 214.49,212.15 219.56,209.97 C222.00,208.93 224.00,208.23 224.00,208.41 C224.00,210.22 220.49,216.18 217.83,218.90 C214.31,222.49 207.85,225.93 204.50,225.99 C199.24,226.09 199.64,227.09 216.86,257.17 C233.68,286.54 236.19,290.96 241.51,300.50 C243.04,303.25 244.87,306.35 245.59,307.38 C246.71,309.03 245.94,311.14 239.43,324.13 C235.34,332.31 231.88,338.99 231.74,338.98 C231.61,338.97 229.99,336.16 228.13,332.73 ZM 183.05 226.91 C184.07,225.00 183.89,224.89 180.33,225.19 C177.54,225.42 176.42,226.00 176.16,227.38 C175.37,231.55 180.76,231.19 183.05,226.91 ZM 242.13 329.62 C242.78,328.18 243.64,327.00 244.03,327.00 C244.42,327.00 254.13,321.68 265.62,315.18 C277.10,308.67 289.30,301.82 292.73,299.96 L 298.96 296.56 L 299.23 276.11 C299.43,260.84 299.82,255.56 300.75,255.25 C301.72,254.92 302.00,259.65 302.00,276.68 L 302.00 298.53 L 297.25 301.11 C290.37,304.85 284.78,307.99 263.40,320.12 C240.31,333.21 240.54,333.11 242.13,329.62 ZM 215.55 325.90 C213.40,324.75 206.66,320.99 200.57,317.55 C189.19,311.11 186.07,309.38 172.75,302.07 L 165.00 297.82 L 165.00 270.91 C165.00,247.66 165.20,244.00 166.50,244.00 C167.79,244.00 168.00,247.55 168.00,269.91 L 168.00 295.82 L 175.75 300.08 C180.01,302.42 185.98,305.68 189.00,307.32 C192.02,308.96 198.55,312.60 203.50,315.40 C208.45,318.21 213.62,321.08 215.00,321.79 C216.38,322.50 218.02,324.18 218.66,325.54 C219.29,326.89 219.74,328.00 219.64,328.00 C219.55,328.00 217.71,327.06 215.55,325.90 ZM 247.12 300.17 C245.96,298.53 245.00,296.94 245.00,296.64 C245.00,296.33 242.52,291.91 239.49,286.81 C236.47,281.71 234.14,277.09 234.32,276.54 C234.56,275.83 267.37,265.16 269.77,265.02 C270.34,264.98 251.33,300.83 249.99,302.33 C249.58,302.78 248.29,301.81 247.12,300.17 ZM 229.62 269.54 C227.52,266.33 227.57,264.08 229.75,263.36 C230.71,263.04 232.85,262.20 234.50,261.49 C236.15,260.78 241.55,258.54 246.50,256.52 C251.45,254.50 258.88,251.36 263.00,249.54 C267.12,247.72 277.92,243.09 287.00,239.26 C296.08,235.43 310.15,229.47 318.28,226.01 C326.41,222.56 333.31,219.98 333.61,220.28 C333.91,220.58 331.53,225.90 328.33,232.10 L 322.50 243.38 L 317.00 245.07 C308.56,247.66 279.41,256.94 271.00,259.70 C260.58,263.13 232.21,272.00 231.67,272.00 C231.43,272.00 230.50,270.89 229.62,269.54 ZM 230.60 255.25 C232.02,252.09 233.41,248.95 233.69,248.27 C234.19,247.05 245.47,240.43 272.00,225.78 C288.77,216.51 292.96,214.17 305.50,207.00 C311.00,203.86 317.52,200.15 320.00,198.76 C322.48,197.37 328.88,193.73 334.24,190.67 L 343.98 185.10 L 342.48 188.80 C333.02,212.00 331.42,215.24 329.02,216.17 C327.65,216.70 325.17,217.75 323.52,218.50 C312.97,223.29 297.41,230.22 291.00,232.99 C286.88,234.77 281.02,237.36 278.00,238.73 C274.98,240.11 268.67,242.93 264.00,245.01 C259.33,247.09 251.07,250.88 245.66,253.42 C235.88,258.02 229.09,261.00 228.39,261.00 C228.19,261.00 229.19,258.41 230.60,255.25 ZM 237.00 241.48 C237.00,241.16 239.50,235.41 242.56,228.70 C245.62,221.99 249.04,214.47 250.14,212.00 C251.99,207.88 254.00,206.26 273.83,192.91 C285.75,184.89 307.75,170.07 322.72,159.97 C337.70,149.88 350.21,141.88 350.54,142.20 C351.10,142.76 347.34,158.06 342.79,173.75 L 340.69 181.00 L 330.10 187.16 C318.52,193.89 296.83,206.71 285.00,213.82 C251.82,233.75 237.00,242.29 237.00,241.48 ZM 338.89 222.05 C342.47,215.14 342.55,215.07 350.77,211.41 C355.33,209.38 359.26,207.93 359.52,208.19 C359.78,208.44 358.50,210.42 356.69,212.58 C354.87,214.73 352.34,218.01 351.05,219.86 C349.51,222.07 346.52,224.20 342.26,226.11 C338.72,227.70 335.69,229.00 335.55,229.00 C335.40,229.00 336.91,225.87 338.89,222.05 ZM 165.00 208.05 L 165.00 196.16 L 182.25 186.45 C191.74,181.11 204.45,173.94 210.50,170.51 C216.55,167.08 224.59,162.59 228.37,160.52 L 235.24 156.76 L 238.87 158.74 C240.87,159.82 245.20,162.18 248.50,163.98 C251.80,165.77 256.30,168.25 258.50,169.48 C260.70,170.71 266.66,173.87 271.75,176.52 C280.81,181.22 282.02,182.25 279.99,183.50 C279.00,184.12 276.84,183.03 249.91,168.39 C242.43,164.32 235.74,161.00 235.03,161.00 C234.32,161.00 224.91,166.01 214.12,172.13 C192.03,184.67 182.12,190.27 173.75,194.94 L 168.00 198.15 L 168.00 208.47 C168.00,216.72 167.70,218.90 166.50,219.36 C165.22,219.85 165.00,218.21 165.00,208.05 ZM 346.00 194.41 C346.00,194.13 346.91,191.89 348.02,189.45 C349.14,187.01 350.46,183.91 350.97,182.58 C351.54,181.08 354.69,178.53 359.20,175.93 C363.21,173.61 368.49,170.56 370.92,169.16 L 375.34 166.61 L 373.59 169.55 C368.39,178.25 359.24,188.53 354.49,191.01 C348.55,194.10 346.00,195.12 346.00,194.41 Z" fill="rgba(0,0,0,1)"/>
</g>
</svg>